_RobotoSerifTextWide-HairlineWidth730.ufo
<glyph name="ampersand" format="2">
  <advance width="804.1064"/>
  <unicode hex="0026"/>
  <outline>
    <contour>
      <point x="675.0772" y="325.31" type="curve" smooth="yes"/>
      <point x="681.9144" y="358.31"/>
      <point x="714.5971999999999" y="363.31"/>
      <point x="765.3316" y="363.31" type="curve" smooth="yes"/>
      <point x="767.8743999999999" y="363.31" type="line"/>
      <point x="767.8743999999999" y="394.0" type="line"/>
      <point x="549.6212" y="394.0" type="line"/>
      <point x="549.6212" y="363.31" type="line"/>
      <point x="552.164" y="363.31" type="line" smooth="yes"/>
      <point x="584.764" y="363.31"/>
      <point x="636.5812000000001" y="360.31"/>
      <point x="636.5812000000001" y="353.31" type="curve" smooth="yes"/>
      <point x="636.5812000000001" y="240.942"/>
      <point x="539.9864" y="21.15"/>
      <point x="330.01919999999996" y="21.15" type="curve" smooth="yes"/>
      <point x="181.7092" y="21.15"/>
      <point x="106.3472" y="93.69"/>
      <point x="106.3472" y="197.41400000000002" type="curve" smooth="yes"/>
      <point x="106.3472" y="300.77"/>
      <point x="173.63" y="350.0"/>
      <point x="290.5516" y="386.724" type="curve"/>
      <point x="285.45320000000004" y="413.414" type="line"/>
      <point x="160.712" y="380.368"/>
      <point x="66.44839999999999" y="311.13800000000003"/>
      <point x="66.44839999999999" y="197.138" type="curve" smooth="yes"/>
      <point x="66.44839999999999" y="74.0"/>
      <point x="164.172" y="-10.0"/>
      <point x="326.22159999999997" y="-10.0" type="curve" smooth="yes"/>
      <point x="572.3444000000001" y="-10.0"/>
      <point x="651.7744" y="222.862"/>
    </contour>
    <contour>
      <point x="796.3236" y="0.0" type="line"/>
      <point x="796.3236" y="31.287999999999997" type="line"/>
      <point x="765.1836000000001" y="31.287999999999997" type="line" smooth="yes"/>
      <point x="714.2836000000001" y="31.287999999999997"/>
      <point x="693.1464000000001" y="47.242000000000004"/>
      <point x="655.9208" y="75.288" type="curve" smooth="yes"/>
      <point x="369.8464" y="285.69"/>
      <point x="271.212" y="420.46"/>
      <point x="271.212" y="551.862" type="curve" smooth="yes"/>
      <point x="271.212" y="642.402"/>
      <point x="327.94280000000003" y="686.85"/>
      <point x="407.4732" y="686.85" type="curve" smooth="yes"/>
      <point x="479.88731063795206" y="686.85"/>
      <point x="517.932" y="644.31"/>
      <point x="517.932" y="586.54" type="curve" smooth="yes"/>
      <point x="517.932" y="496.46"/>
      <point x="417.52840000000003" y="451.104"/>
      <point x="298.134" y="416.644" type="curve"/>
      <point x="313.606" y="391.77" type="line"/>
      <point x="436.3012" y="427.092"/>
      <point x="560.1492000000001" y="487.046"/>
      <point x="560.1492000000001" y="586.908" type="curve" smooth="yes"/>
      <point x="560.1492000000001" y="665.0"/>
      <point x="505.7" y="718.0"/>
      <point x="407.4732" y="718.0" type="curve" smooth="yes"/>
      <point x="303.77156178296326" y="718.0"/>
      <point x="230.154" y="655.862"/>
      <point x="230.154" y="552.0" type="curve" smooth="yes"/>
      <point x="230.154" y="374.644"/>
      <point x="422.834" y="192.0"/>
      <point x="689.6148000000001" y="0.0" type="curve"/>
    </contour>
  </outline>
</glyph>
<glyph name="D" format="2">
  <advance width="833"/>
  <unicode hex="0044"/>
  <anchor x="415.8136" y="741.0" name="top"/>
  <anchor x="415.8136" y="0.0" name="bottom"/>
  <outline>
    <contour>
      <point x="52.36" y="679.218" type="line"/>
      <point x="66.2" y="679.218" type="line" smooth="yes"/>
      <point x="123.02000000000001" y="679.218"/>
      <point x="165.0" y="670.218"/>
      <point x="165.0" y="643.218" type="curve" smooth="yes"/>
      <point x="165.0" y="66.782" type="line" smooth="yes"/>
      <point x="165.0" y="37.782000000000004"/>
      <point x="123.02000000000001" y="30.782"/>
      <point x="66.2" y="30.782" type="curve" smooth="yes"/>
      <point x="52.36" y="30.782" type="line"/>
      <point x="52.36" y="0.0" type="line"/>
      <point x="342.58680000000004" y="0.0" type="line" smooth="yes"/>
      <point x="620.4228" y="0.0"/>
      <point x="777.8468" y="141.0"/>
      <point x="777.8468" y="357.0" type="curve" smooth="yes"/>
      <point x="777.8468" y="574.0"/>
      <point x="620.4228" y="710.0"/>
      <point x="342.58680000000004" y="710.0" type="curve" smooth="yes"/>
      <point x="52.36" y="710.0" type="line"/>
    </contour>
    <contour>
      <point x="342.58680000000004" y="678.666" type="line" smooth="yes"/>
      <point x="596.0548" y="678.666"/>
      <point x="734.3224" y="562.146513513516"/>
      <point x="734.3224" y="357.0" type="curve" smooth="yes"/>
      <point x="734.3224" y="151.85192"/>
      <point x="596.0548" y="31.334"/>
      <point x="342.58680000000004" y="31.334" type="curve" smooth="yes"/>
      <point x="205.644" y="31.334" type="line"/>
      <point x="205.644" y="678.666" type="line"/>
    </contour>
  </outline>
</glyph>
<glyph name="O" format="2">
  <advance width="862"/>
  <unicode hex="004F"/>
  <anchor x="430.6104" y="741.0" name="top"/>
  <anchor x="430.6104" y="0.0" name="bottom"/>
  <outline>
    <contour>
      <point x="430.6104" y="720.0" type="curve" smooth="yes"/>
      <point x="217.0352" y="720.0"/>
      <point x="54.36" y="572.0"/>
      <point x="54.36" y="355.0" type="curve" smooth="yes"/>
      <point x="54.36" y="139.0"/>
      <point x="217.0352" y="-10.0"/>
      <point x="430.6104" y="-10.0" type="curve" smooth="yes"/>
      <point x="645.2683999999999" y="-10.0"/>
      <point x="807.4836" y="139.0"/>
      <point x="807.4836" y="355.0" type="curve" smooth="yes"/>
      <point x="807.4836" y="572.0"/>
      <point x="645.2683999999999" y="720.0"/>
    </contour>
    <contour>
      <point x="430.6104" y="21.38" type="curve" smooth="yes"/>
      <point x="235.0692" y="21.38"/>
      <point x="98.4272" y="150.828"/>
      <point x="98.4272" y="355.0" type="curve" smooth="yes"/>
      <point x="98.4272" y="559.172"/>
      <point x="235.15200000000004" y="688.62"/>
      <point x="430.6104" y="688.62" type="curve" smooth="yes"/>
      <point x="625.6088" y="688.62"/>
      <point x="763.9592" y="559.172"/>
      <point x="763.9592" y="355.0" type="curve" smooth="yes"/>
      <point x="763.9592" y="150.828"/>
      <point x="625.6088" y="21.38"/>
    </contour>
  </outline>
</glyph>
<glyph name="X" format="2">
  <advance width="782"/>
  <unicode hex="0058"/>
  <outline>
    <contour>
      <point x="41.2348" y="679.218" type="line"/>
      <point x="49.3204" y="679.218" type="line" smooth="yes"/>
      <point x="92.3004" y="679.218"/>
      <point x="116.52040000000001" y="678.172"/>
      <point x="141.28320000000002" y="647.218" type="curve" smooth="yes"/>
      <point x="371.278" y="352.356" type="line"/>
      <point x="378.198" y="348.356" type="line"/>
      <point x="620.8543999999999" y="40.782000000000004" type="line"/>
      <point x="620.8543999999999" y="33.782000000000004"/>
      <point x="567.4944" y="30.782"/>
      <point x="526.0572" y="30.782" type="curve" smooth="yes"/>
      <point x="506.2972" y="30.782" type="line"/>
      <point x="506.2972" y="0.0" type="line"/>
      <point x="759.2156" y="0.0" type="line"/>
      <point x="759.2156" y="30.782" type="line"/>
      <point x="747.3756000000001" y="30.782" type="line" smooth="yes"/>
      <point x="704.3956000000001" y="30.782"/>
      <point x="680.1756" y="32.827999999999996"/>
      <point x="654.4956" y="64.782" type="curve" smooth="yes"/>
      <point x="405.244" y="380.276" type="line"/>
      <point x="398.32399999999996" y="383.276" type="line"/>
      <point x="174.8416" y="669.218" type="line"/>
      <point x="174.8416" y="676.218"/>
      <point x="228.20159999999998" y="679.218"/>
      <point x="269.6388" y="679.218" type="curve" smooth="yes"/>
      <point x="289.3988" y="679.218" type="line"/>
      <point x="289.3988" y="710.0" type="line"/>
      <point x="41.2348" y="710.0" type="line"/>
    </contour>
    <contour>
      <point x="22.474800000000002" y="0.0" type="line"/>
      <point x="273.66560000000004" y="0.0" type="line"/>
      <point x="273.66560000000004" y="30.782" type="line"/>
      <point x="255.8228" y="30.782" type="line" smooth="yes"/>
      <point x="212.8428" y="30.782"/>
      <point x="157.56560000000002" y="37.782000000000004"/>
      <point x="157.56560000000002" y="48.782000000000004" type="curve"/>
      <point x="392.5936" y="345.586" type="line"/>
      <point x="375.152" y="379.13800000000003" type="line"/>
      <point x="134.1148" y="76.782" type="line" smooth="yes"/>
      <point x="104.05760000000001" y="39.782000000000004"/>
      <point x="75.75200000000001" y="30.782"/>
      <point x="33.772000000000006" y="30.782" type="curve" smooth="yes"/>
      <point x="22.474800000000002" y="30.782" type="line"/>
    </contour>
    <contour>
      <point x="407.9524" y="360.678" type="line"/>
      <point x="623.5212" y="634.218" type="line" smooth="yes"/>
      <point x="652.0356" y="670.218"/>
      <point x="683.8012" y="679.218"/>
      <point x="726.7812" y="679.218" type="curve" smooth="yes"/>
      <point x="732.7012" y="679.218" type="line"/>
      <point x="732.7012" y="710.0" type="line"/>
      <point x="487.51320000000004" y="710.0" type="line"/>
      <point x="487.51320000000004" y="679.218" type="line"/>
      <point x="504.81320000000005" y="679.218" type="line" smooth="yes"/>
      <point x="548.7932000000001" y="679.218"/>
      <point x="601.1532" y="672.218"/>
      <point x="601.1532" y="661.218" type="curve"/>
      <point x="384.1768" y="383.598" type="line"/>
    </contour>
  </outline>
</glyph>
<glyph name="w" format="2">
  <advance width="915.9884"/>
  <unicode hex="0077"/>
  <anchor x="457.3732" y="551.0" name="top"/>
  <outline>
    <contour>
      <point x="461.16440000000006" y="472.918" type="line"/>
      <point x="304.2196" y="0.0" type="line"/>
      <point x="246.6196" y="0.0" type="line"/>
      <point x="90.9168" y="446.31" type="line" smooth="yes"/>
      <point x="81.5368" y="471.31"/>
      <point x="49.4796" y="477.31"/>
      <point x="13.419599999999999" y="477.31" type="curve"/>
      <point x="12.419599999999999" y="477.31" type="line"/>
      <point x="12.419599999999999" y="508.0" type="line"/>
      <point x="229.692" y="508.0" type="line"/>
      <point x="229.692" y="477.31" type="line"/>
      <point x="227.1492" y="477.31" type="line" smooth="yes"/>
      <point x="173.7892" y="477.31"/>
      <point x="123.8892" y="475.31"/>
      <point x="123.8892" y="468.31" type="curve"/>
      <point x="281.66200000000003" y="21.886000000000003" type="line"/>
      <point x="269.9876" y="17.116" type="line"/>
      <point x="432.6868" y="508.0" type="line"/>
      <point x="479.4404" y="508.0" type="line"/>
      <point x="645.5996" y="19.07" type="line"/>
      <point x="630.8856000000001" y="14.3" type="line"/>
      <point x="787.0724" y="456.31" type="line"/>
      <point x="784.5296000000001" y="469.31"/>
      <point x="742.5496" y="477.31"/>
      <point x="688.2724000000001" y="477.31" type="curve" smooth="yes"/>
      <point x="685.7296" y="477.31" type="line"/>
      <point x="685.7296" y="508.0" type="line"/>
      <point x="903.5688000000001" y="508.0" type="line"/>
      <point x="903.5688000000001" y="477.31" type="line"/>
      <point x="902.1088000000001" y="477.31" type="line"/>
      <point x="866.5916" y="477.31"/>
      <point x="827.9888" y="465.31"/>
      <point x="817.6088" y="434.31" type="curve" smooth="yes"/>
      <point x="665.952" y="0.0" type="line"/>
      <point x="609.9775999999999" y="0.0" type="line"/>
      <point x="442.40440000000007" y="488.136" type="line"/>
    </contour>
  </outline>
</glyph>
<glyph name="z" format="2">
  <advance width="521"/>
  <unicode hex="007A"/>
  <anchor x="264.558" y="551.0" name="top"/>
  <anchor x="285.1524" y="0.0" name="bottom"/>
  <outline>
    <contour>
      <point x="74.98920000000001" y="13.242" type="line"/>
      <point x="473.34200000000004" y="477.804" type="line"/>
      <point x="473.34200000000004" y="508.0" type="line"/>
      <point x="66.9452" y="508.0" type="line"/>
      <point x="66.9452" y="362.218" type="line"/>
      <point x="96.81280000000001" y="362.218" type="line"/>
      <point x="107.1928" y="433.896" type="line" smooth="yes"/>
      <point x="113.11280000000001" y="469.896"/>
      <point x="151.1728" y="476.896"/>
      <point x="252.4328" y="476.896" type="curve" smooth="yes"/>
      <point x="454.9612" y="476.896" type="line"/>
      <point x="436.5784" y="491.804" type="line"/>
      <point x="44.4768" y="34.242000000000004" type="line"/>
      <point x="44.4768" y="0.0" type="line"/>
      <point x="488.4304" y="0.0" type="line"/>
      <point x="488.4304" y="159.012" type="line"/>
      <point x="458.64560000000006" y="159.012" type="line"/>
      <point x="447.34839999999997" y="76.15" type="line" smooth="yes"/>
      <point x="441.4284" y="38.15"/>
      <point x="401.90840000000003" y="31.15"/>
      <point x="302.1084" y="31.15" type="curve" smooth="yes"/>
      <point x="53.5668" y="31.15" type="line"/>
    </contour>
  </outline>
</glyph>
<glyph name="sterling" format="2">
  <advance width="650.1600000000001"/>
  <unicode hex="00A3"/>
  <outline>
    <contour>
      <point x="43.6488" y="352.598" type="line"/>
      <point x="43.6488" y="321.49399999999997" type="line"/>
      <point x="468.7468" y="321.49399999999997" type="line"/>
      <point x="468.7468" y="352.598" type="line"/>
    </contour>
    <contour>
      <point x="44.8908" y="1.3099999999999998" type="line"/>
      <point x="183.8556" y="26.908"/>
      <point x="266.8588" y="94.05799999999999"/>
      <point x="266.8588" y="214.104" type="curve" smooth="yes"/>
      <point x="266.8588" y="325.242"/>
      <point x="162.5288" y="410.954"/>
      <point x="162.5288" y="527.7239999999999" type="curve" smooth="yes"/>
      <point x="162.5288" y="630.9879999999999"/>
      <point x="245.8504" y="686.62"/>
      <point x="361.8088" y="686.62" type="curve" smooth="yes"/>
      <point x="447.7624" y="686.62"/>
      <point x="496.5336" y="656.804"/>
      <point x="529.1336" y="630.712" type="curve"/>
      <point x="529.2164" y="641.172"/>
      <point x="516.3764" y="656.586"/>
      <point x="505.7352" y="670.9879999999999" type="curve"/>
      <point x="505.7352" y="570.712" type="line"/>
      <point x="556.5412" y="570.712" type="line"/>
      <point x="556.5412" y="661.046" type="line"/>
      <point x="524.4012" y="684.138"/>
      <point x="463.4892" y="718.0"/>
      <point x="361.9744" y="718.0" type="curve" smooth="yes"/>
      <point x="220.2708" y="718.0"/>
      <point x="118.25919999999999" y="642.816"/>
      <point x="118.25919999999999" y="527.494" type="curve" smooth="yes"/>
      <point x="118.25919999999999" y="402.18399999999997"/>
      <point x="228.9296" y="306.472"/>
      <point x="228.9296" y="213.41400000000002" type="curve" smooth="yes"/>
      <point x="228.9296" y="104.748"/>
      <point x="162.45080000000002" y="56.748"/>
      <point x="44.8908" y="33.15" type="curve"/>
    </contour>
    <contour>
      <point x="429.80640000000005" y="-2.368" type="curve" smooth="yes"/>
      <point x="527.6956" y="-2.368"/>
      <point x="570.3508" y="48.334"/>
      <point x="598.7760000000001" y="128.208" type="curve"/>
      <point x="569.8652" y="142.392" type="line"/>
      <point x="543.7712" y="74.932"/>
      <point x="517.6708" y="39.932"/>
      <point x="437.80920000000003" y="39.932" type="curve" smooth="yes"/>
      <point x="366.56960000000004" y="39.932"/>
      <point x="307.0348" y="78.426"/>
      <point x="241.11360000000002" y="155.78199999999998" type="curve"/>
      <point x="239.0612" y="148.69"/>
      <point x="239.7172" y="127.55199999999999"/>
      <point x="223.258" y="123.862" type="curve"/>
      <point x="297.986" y="45.494"/>
      <point x="345.2604" y="-2.368"/>
    </contour>
  </outline>
</glyph>
<glyph name="logicalnot" format="2">
  <advance width="650.1600000000001"/>
  <unicode hex="00AC"/>
  <outline>
    <contour>
      <point x="502.61280000000005" y="341.46" type="line"/>
      <point x="502.61280000000005" y="175.08" type="line"/>
      <point x="541.0692" y="175.08" type="line"/>
      <point x="541.0692" y="361.46" type="line"/>
      <point x="109.0908" y="361.46" type="line"/>
      <point x="109.0908" y="327.218" type="line"/>
      <point x="525.9744000000001" y="327.218" type="line"/>
    </contour>
  </outline>
</glyph>
<glyph name="degree" format="2">
  <advance width="441.796"/>
  <unicode hex="00B0"/>
  <outline>
    <contour>
      <point x="336.08720000000005" y="595.746" type="curve" smooth="yes"/>
      <point x="336.08720000000005" y="534.47"/>
      <point x="290.47575510260475" y="494.19399999999996"/>
      <point x="220.898" y="494.19399999999996" type="curve" smooth="yes"/>
      <point x="151.3202448973952" y="494.19399999999996"/>
      <point x="105.7088" y="534.47"/>
      <point x="105.7088" y="595.746" type="curve" smooth="yes"/>
      <point x="105.7088" y="657.022"/>
      <point x="151.652" y="697.298"/>
      <point x="220.898" y="697.298" type="curve" smooth="yes"/>
      <point x="290.144" y="697.298"/>
      <point x="336.08720000000005" y="657.022"/>
    </contour>
    <contour>
      <point x="70.2396" y="595.746" type="curve" smooth="yes"/>
      <point x="70.2396" y="516.412"/>
      <point x="137.33280000000002" y="462.492"/>
      <point x="220.898" y="462.492" type="curve" smooth="yes"/>
      <point x="304.46320000000003" y="462.492"/>
      <point x="372.0992" y="516.412"/>
      <point x="372.0992" y="595.746" type="curve" smooth="yes"/>
      <point x="372.0992" y="675.08"/>
      <point x="304.46320000000003" y="729.0"/>
      <point x="220.898" y="729.0" type="curve" smooth="yes"/>
      <point x="137.33280000000002" y="729.0"/>
      <point x="70.2396" y="675.08"/>
    </contour>
  </outline>
</glyph>
<glyph name="lslash" format="2">
  <advance width="318.2316"/>
  <unicode hex="0142"/>
  <outline>
    <contour>
      <point x="28.229200000000002" y="226.16" type="line"/>
      <point x="300.60040000000004" y="476.988" type="line"/>
      <point x="300.60040000000004" y="526.0" type="line"/>
      <point x="28.229200000000002" y="275.17199999999997" type="line"/>
    </contour>
    <component base="l" xOffset="21.923600000000008"/>
  </outline>
</glyph>
<glyph name="ohorn" format="2">
  <advance width="659.5812000000001"/>
  <unicode hex="01A1"/>
  <anchor x="322.0992" y="538.0" name="top"/>
  <outline>
    <contour>
      <point x="342.7524" y="493.49399999999997" type="curve"/>
      <point x="570.854" y="483.49399999999997"/>
      <point x="619.8956000000001" y="556.62"/>
      <point x="629.6436" y="684.77" type="curve"/>
      <point x="587.6748" y="684.77" type="line"/>
      <point x="576.3012" y="554.862"/>
      <point x="531.8244000000001" y="518.0"/>
      <point x="324.8076" y="518.0" type="curve"/>
      <point x="329.60519999999997" y="512.816"/>
      <point x="337.3292" y="497.678"/>
    </contour>
    <contour>
      <point x="322.0992" y="-11.908" type="curve"/>
      <point x="479.4404" y="-11.908"/>
      <point x="593.4639999999999" y="95.092"/>
      <point x="593.4639999999999" y="253.046" type="curve" smooth="yes"/>
      <point x="593.4639999999999" y="376.724"/>
      <point x="519.298" y="471.632"/>
      <point x="412.51279999999997" y="501.86199999999997" type="curve"/>
      <point x="382.68" y="513.816"/>
      <point x="354.2024" y="518.0"/>
      <point x="322.0992" y="518.0" type="curve" smooth="yes"/>
      <point x="164.67520000000002" y="518.0"/>
      <point x="50.6516" y="410.0"/>
      <point x="50.6516" y="253.046" type="curve" smooth="yes"/>
      <point x="50.6516" y="95.092"/>
      <point x="164.67520000000002" y="-11.908"/>
    </contour>
    <contour>
      <point x="322.0992" y="19.334" type="curve"/>
      <point x="181.9576" y="19.334"/>
      <point x="94.83840000000001" y="110.87400000000001"/>
      <point x="94.83840000000001" y="253.046" type="curve" smooth="yes"/>
      <point x="94.83840000000001" y="392.264"/>
      <point x="181.9576" y="486.758"/>
      <point x="322.0992" y="486.758" type="curve" smooth="yes"/>
      <point x="462.158" y="486.758"/>
      <point x="549.2772" y="392.264"/>
      <point x="549.2772" y="253.046" type="curve" smooth="yes"/>
      <point x="549.2772" y="109.87400000000001"/>
      <point x="462.158" y="19.334"/>
    </contour>
  </outline>
</glyph>
<glyph name="tilde" format="2">
  <advance width="581.0428"/>
  <unicode hex="02DC"/>
  <anchor x="290.48" y="516.0" name="_top"/>
  <outline>
    <contour>
      <point x="365.9312" y="615.942" type="curve" smooth="yes"/>
      <point x="422.25440000000003" y="615.942"/>
      <point x="446.77520000000004" y="651.264"/>
      <point x="467.7008" y="715.138" type="curve"/>
      <point x="437.7964" y="724.506" type="line"/>
      <point x="421.0824" y="678.598"/>
      <point x="405.45120000000003" y="651.506"/>
      <point x="374.1456" y="651.506" type="curve" smooth="yes"/>
      <point x="321.9576" y="651.506"/>
      <point x="294.1884" y="727.23"/>
      <point x="208.82080000000002" y="727.23" type="curve" smooth="yes"/>
      <point x="154.4544" y="727.23"/>
      <point x="125.8112" y="692.908"/>
      <point x="112.2196" y="626.08" type="curve"/>
      <point x="142.2068" y="615.804" type="line"/>
      <point x="154.37800000000001" y="664.712"/>
      <point x="167.0524" y="691.712"/>
      <point x="202.1492" y="691.712" type="curve" smooth="yes"/>
      <point x="252.2084" y="691.712"/>
      <point x="276.9776" y="615.942"/>
    </contour>
  </outline>
</glyph>
<glyph name="hungarumlaut" format="2">
  <advance width="580.5"/>
  <unicode hex="02DD"/>
  <anchor x="257.5312" y="525.0" name="_top"/>
  <outline>
    <contour>
      <point x="199.43439999999998" y="704.138" type="curve" smooth="yes"/>
      <point x="161.5464" y="592.678" type="line"/>
      <point x="161.5464" y="575.54" type="line"/>
      <point x="179.81600000000003" y="575.54" type="line"/>
      <point x="251.85320000000002" y="682.942" type="line" smooth="yes"/>
      <point x="259.9452" y="698.31"/>
      <point x="272.0336" y="713.448"/>
      <point x="272.0336" y="727.6320000000001" type="curve" smooth="yes"/>
      <point x="272.0336" y="744.862"/>
      <point x="259.856" y="754.23"/>
      <point x="244.798" y="754.23" type="curve" smooth="yes"/>
      <point x="218.3664" y="754.23"/>
      <point x="209.98000000000002" y="735.46"/>
    </contour>
    <contour>
      <point x="348.1104" y="704.138" type="curve" smooth="yes"/>
      <point x="310.1396" y="592.678" type="line"/>
      <point x="310.1396" y="575.54" type="line"/>
      <point x="327.9492" y="575.54" type="line"/>
      <point x="399.9864" y="682.942" type="line" smooth="yes"/>
      <point x="408.5384" y="698.31"/>
      <point x="420.1668" y="713.448"/>
      <point x="420.1668" y="727.6320000000001" type="curve" smooth="yes"/>
      <point x="420.1668" y="744.862"/>
      <point x="408.53200000000004" y="754.23"/>
      <point x="393.3912" y="754.23" type="curve" smooth="yes"/>
      <point x="366.9596" y="754.23"/>
      <point x="358.57320000000004" y="735.46"/>
    </contour>
  </outline>
</glyph>
<glyph name="minute" format="2">
  <advance width="278.64"/>
  <unicode hex="2032"/>
  <outline>
    <contour>
      <point x="185.6596" y="710.0" type="line"/>
      <point x="172.5712" y="616.23"/>
      <point x="155.76160000000002" y="572.736"/>
      <point x="140.7928" y="456.87399999999997" type="curve"/>
      <point x="106.88560000000001" y="456.87399999999997" type="line"/>
      <point x="126.72840000000001" y="593.058"/>
      <point x="123.34479999999999" y="635.736"/>
      <point x="136.4332" y="710.0" type="curve"/>
    </contour>
  </outline>
</glyph>
<glyph name="fraction" format="2">
  <advance width="491.99719999999996"/>
  <unicode hex="2044"/>
  <outline>
    <contour>
      <point x="586.3676" y="710.0" type="line"/>
      <point x="-139.0716" y="0.0" type="line"/>
      <point x="-96.606" y="0.0" type="line"/>
      <point x="628.916" y="710.0" type="line"/>
    </contour>
  </outline>
</glyph>
<glyph name="peseta" format="2">
  <advance width="650.1600000000001"/>
  <unicode hex="20A7"/>
  <outline>
    <contour>
      <point x="-8.996400000000001" y="0.0" type="line"/>
      <point x="220.1116" y="0.0" type="line"/>
      <point x="220.1116" y="30.782" type="line"/>
      <point x="189.9412" y="30.782" type="line" smooth="yes"/>
      <point x="153.4736" y="30.782"/>
      <point x="118.87360000000001" y="33.782000000000004"/>
      <point x="118.87360000000001" y="40.782000000000004" type="curve" smooth="yes"/>
      <point x="118.87360000000001" y="277.896" type="line"/>
      <point x="137.17360000000002" y="277.896" type="line" smooth="yes"/>
      <point x="307.4552" y="277.896"/>
      <point x="391.3692" y="367.17199999999997"/>
      <point x="391.3692" y="497.448" type="curve" smooth="yes"/>
      <point x="391.3692" y="627.7239999999999"/>
      <point x="310.7496" y="710.0"/>
      <point x="143.0936" y="710.0" type="curve" smooth="yes"/>
      <point x="-8.996400000000001" y="710.0" type="line"/>
      <point x="-8.996400000000001" y="679.218" type="line"/>
      <point x="3.9632" y="679.218" type="line" smooth="yes"/>
      <point x="48.682" y="679.218"/>
      <point x="77.8156" y="672.218"/>
      <point x="77.8156" y="643.218" type="curve" smooth="yes"/>
      <point x="77.8156" y="66.782" type="line" smooth="yes"/>
      <point x="77.8156" y="37.782000000000004"/>
      <point x="48.682" y="30.782"/>
      <point x="3.9632" y="30.782" type="curve" smooth="yes"/>
      <point x="-8.996400000000001" y="30.782" type="line"/>
    </contour>
    <contour>
      <point x="142.8452" y="678.7579999999999" type="line" smooth="yes"/>
      <point x="283.6732" y="678.7579999999999"/>
      <point x="346.6856" y="611.942"/>
      <point x="346.6856" y="496.448" type="curve" smooth="yes"/>
      <point x="346.6856" y="382.86199999999997"/>
      <point x="284.8388" y="309.046"/>
      <point x="136.92520000000002" y="309.046" type="curve" smooth="yes"/>
      <point x="118.87360000000001" y="309.046" type="line"/>
      <point x="118.87360000000001" y="678.7579999999999" type="line"/>
    </contour>
    <contour>
      <point x="370.4372" y="476.758" type="line"/>
      <point x="655.3652" y="476.758" type="line"/>
      <point x="655.3652" y="508.0" type="line"/>
      <point x="518.0912000000001" y="508.0" type="line"/>
      <point x="481.36240000000004" y="554.0120000000001" type="line"/>
      <point x="481.36240000000004" y="512.092"/>
      <point x="450.56" y="503.0"/>
      <point x="390.7068" y="503.0" type="curve" smooth="yes"/>
      <point x="370.4372" y="503.0" type="line"/>
    </contour>
    <contour>
      <point x="515.448" y="110.862" type="curve" smooth="yes"/>
      <point x="515.448" y="648.0" type="line"/>
      <point x="481.36240000000004" y="648.0" type="line"/>
      <point x="481.36240000000004" y="500.0" type="line"/>
      <point x="473.976" y="492.0" type="line"/>
      <point x="473.976" y="110.908" type="line" smooth="yes"/>
      <point x="473.976" y="23.862"/>
      <point x="532.9184" y="-11.0"/>
      <point x="600.088" y="-11.0" type="curve" smooth="yes"/>
      <point x="635.2676" y="-11.0"/>
      <point x="660.15" y="-5.138"/>
      <point x="672.1555999999999" y="0.724" type="curve"/>
      <point x="672.1555999999999" y="34.012" type="line"/>
      <point x="663.024" y="30.966"/>
      <point x="635.1020000000001" y="23.242"/>
      <point x="608.2628" y="23.242" type="curve" smooth="yes"/>
      <point x="554.9552" y="23.242"/>
      <point x="515.448" y="52.644"/>
    </contour>
  </outline>
</glyph>
<glyph name="ruble" format="2">
  <advance width="651.7856"/>
  <unicode hex="20BD"/>
  <outline>
    <contour>
      <point x="41.4832" y="375.46" type="line"/>
      <point x="352.978" y="375.46" type="line" smooth="yes"/>
      <point x="526.4888" y="375.46"/>
      <point x="587.3484" y="436.18399999999997"/>
      <point x="587.3484" y="529.678" type="curve" smooth="yes"/>
      <point x="587.3484" y="624.034"/>
      <point x="524.8632" y="678.7579999999999"/>
      <point x="358.438" y="678.7579999999999" type="curve" smooth="yes"/>
      <point x="193.14159999999998" y="678.7579999999999" type="line"/>
      <point x="193.14159999999998" y="40.782000000000004" type="line" smooth="yes"/>
      <point x="193.14159999999998" y="33.782000000000004"/>
      <point x="242.9588" y="30.782"/>
      <point x="282.5616" y="30.782" type="curve" smooth="yes"/>
      <point x="314.1616" y="30.782" type="line"/>
      <point x="314.1616" y="0.0" type="line"/>
      <point x="41.4832" y="0.0" type="line"/>
      <point x="41.4832" y="30.782" type="line"/>
      <point x="53.7804" y="30.782" type="line" smooth="yes"/>
      <point x="111.14320000000001" y="30.782"/>
      <point x="152.5804" y="37.782000000000004"/>
      <point x="152.5804" y="66.782" type="curve" smooth="yes"/>
      <point x="152.5804" y="643.218" type="line" smooth="yes"/>
      <point x="152.5804" y="672.218"/>
      <point x="111.14320000000001" y="679.218"/>
      <point x="53.7804" y="679.218" type="curve" smooth="yes"/>
      <point x="41.4832" y="679.218" type="line"/>
      <point x="41.4832" y="710.0" type="line"/>
      <point x="358.2724" y="710.0" type="line" smooth="yes"/>
      <point x="551.6912" y="710.0"/>
      <point x="631.204" y="640.816"/>
      <point x="631.204" y="530.678" type="curve" smooth="yes"/>
      <point x="631.204" y="420.586"/>
      <point x="547.3968" y="344.448"/>
      <point x="352.8952" y="344.448" type="curve" smooth="yes"/>
      <point x="41.4832" y="344.448" type="line"/>
    </contour>
    <contour>
      <point x="436.6196" y="186.58599999999998" type="line"/>
      <point x="41.4832" y="186.58599999999998" type="line"/>
      <point x="41.4832" y="217.598" type="line"/>
      <point x="436.6196" y="217.598" type="line"/>
    </contour>
  </outline>
</glyph>
<glyph name="partialdiff" format="2">
  <advance width="632.7532000000001"/>
  <unicode hex="2202"/>
  <outline>
    <contour>
      <point x="261.098" y="-12.0" type="curve" smooth="yes"/>
      <point x="443.40440000000007" y="-12.0"/>
      <point x="561.474" y="199.046"/>
      <point x="561.474" y="457.0" type="curve" smooth="yes"/>
      <point x="561.474" y="665.0"/>
      <point x="474.67320000000007" y="748.0"/>
      <point x="340.5584" y="748.0" type="curve" smooth="yes"/>
      <point x="275.742" y="748.0"/>
      <point x="219.17040000000003" y="727.3679999999999"/>
      <point x="180.8096" y="703.138" type="curve"/>
      <point x="197.03320000000002" y="677.264" type="line"/>
      <point x="228.7224" y="695.31"/>
      <point x="279.4504" y="716.896"/>
      <point x="335.264" y="716.896" type="curve" smooth="yes"/>
      <point x="441.18" y="716.896"/>
      <point x="516.3764" y="646.862"/>
      <point x="516.3764" y="489.0" type="curve" smooth="yes"/>
      <point x="516.3764" y="249.15"/>
      <point x="428.5884" y="19.104"/>
      <point x="260.8496" y="19.104" type="curve" smooth="yes"/>
      <point x="159.8968" y="19.104"/>
      <point x="115.42" y="84.598"/>
      <point x="115.42" y="203.276" type="curve" smooth="yes"/>
      <point x="115.42" y="356.81600000000003"/>
      <point x="218.8392" y="486.896"/>
      <point x="363.6892" y="486.896" type="curve" smooth="yes"/>
      <point x="446.7688" y="486.896"/>
      <point x="506.0552" y="451.804"/>
      <point x="548.5624" y="411.562" type="curve"/>
      <point x="546.4096" y="412.62"/>
      <point x="537.4372" y="445.666"/>
      <point x="526.9808" y="468.0" type="curve"/>
      <point x="510.33680000000004" y="486.092"/>
      <point x="451.6952" y="518.0"/>
      <point x="363.27520000000004" y="518.0" type="curve" smooth="yes"/>
      <point x="202.7288" y="518.0"/>
      <point x="70.7364" y="378.356"/>
      <point x="70.7364" y="197.0" type="curve" smooth="yes"/>
      <point x="70.7364" y="65.828"/>
      <point x="146.5648" y="-12.0"/>
    </contour>
  </outline>
</glyph>
<glyph name="infinity" format="2">
  <advance width="901.12"/>
  <unicode hex="221E"/>
  <outline>
    <contour>
      <point x="251.2976" y="154.0" type="curve" smooth="yes"/>
      <point x="138.9888" y="154.0"/>
      <point x="58.28" y="236.0"/>
      <point x="58.28" y="353.0" type="curve" smooth="yes"/>
      <point x="58.28" y="471.0"/>
      <point x="140.86919999999998" y="556.0"/>
      <point x="249.5524" y="556.0" type="curve" smooth="yes"/>
      <point x="365.6652" y="556.0"/>
      <point x="415.8136" y="463.092"/>
      <point x="460.33639999999997" y="380.0" type="curve" smooth="yes"/>
      <point x="522.7755999999999" y="264.058"/>
      <point x="568.0436000000001" y="190.794"/>
      <point x="667.1224" y="190.794" type="curve" smooth="yes"/>
      <point x="753.03" y="190.794"/>
      <point x="811.3036000000001" y="258.058"/>
      <point x="811.3036000000001" y="360.0" type="curve" smooth="yes"/>
      <point x="811.3036000000001" y="456.988"/>
      <point x="751.3612" y="519.298"/>
      <point x="651.1536" y="519.298" type="curve" smooth="yes"/>
      <point x="550.8632" y="519.298"/>
      <point x="494.62919999999997" y="451.08"/>
      <point x="460.20120000000003" y="359.46" type="curve"/>
      <point x="440.7596" y="360.46" type="line"/>
      <point x="464.9796" y="470.0"/>
      <point x="541.6424000000001" y="556.0"/>
      <point x="650.9052" y="556.0" type="curve" smooth="yes"/>
      <point x="763.214" y="556.0"/>
      <point x="842.84" y="474.0"/>
      <point x="842.84" y="357.0" type="curve" smooth="yes"/>
      <point x="842.84" y="239.0"/>
      <point x="761.2508" y="154.0"/>
      <point x="656.6072" y="154.0" type="curve" smooth="yes"/>
      <point x="539.7492" y="154.0"/>
      <point x="483.8464" y="237.90800000000002"/>
      <point x="440.8664" y="332.0" type="curve" smooth="yes"/>
      <point x="391.0556" y="444.896"/>
      <point x="334.07640000000004" y="519.206"/>
      <point x="239.9544" y="519.206" type="curve" smooth="yes"/>
      <point x="149.09" y="519.206"/>
      <point x="89.89920000000001" y="452.896"/>
      <point x="89.89920000000001" y="350.0" type="curve" smooth="yes"/>
      <point x="89.89920000000001" y="253.012"/>
      <point x="150.9244" y="190.702"/>
      <point x="251.04919999999998" y="190.702" type="curve" smooth="yes"/>
      <point x="352.3396" y="190.702"/>
      <point x="406.0308" y="258.92"/>
      <point x="439.37600000000003" y="350.54" type="curve"/>
      <point x="459.4432" y="349.54" type="line"/>
      <point x="436.2232" y="240.0"/>
      <point x="361.5604" y="154.0"/>
    </contour>
  </outline>
</glyph>
<glyph name="uni25BF" format="2">
  <advance width="725.74"/>
  <unicode hex="25BF"/>
  <outline>
    <contour>
      <point x="673.38" y="464.0" type="line"/>
      <point x="52.36" y="464.0" type="line"/>
      <point x="362.14" y="91.0" type="line"/>
    </contour>
    <contour>
      <point x="574.58" y="414.0" type="line"/>
      <point x="566.6600000000001" y="430.0" type="line"/>
      <point x="356.22" y="175.0" type="line"/>
      <point x="369.06" y="175.0" type="line"/>
      <point x="159.07999999999998" y="430.0" type="line"/>
      <point x="151.16" y="414.0" type="line"/>
    </contour>
  </outline>
</glyph>
<glyph name="acute.pl" format="2">
  <advance width="580.5"/>
  <anchor x="244.3776" y="489.0" name="_top"/>
  <outline>
    <contour>
      <point x="249.57" y="702.804" type="curve" smooth="yes"/>
      <point x="234.27640000000002" y="592.678" type="line"/>
      <point x="234.27640000000002" y="575.54" type="line"/>
      <point x="252.62879999999998" y="575.54" type="line"/>
      <point x="301.2804" y="682.666" type="line" smooth="yes"/>
      <point x="307.2896" y="699.218"/>
      <point x="312.9612" y="713.494"/>
      <point x="312.9612" y="727.678" type="curve" smooth="yes"/>
      <point x="312.9612" y="745.0"/>
      <point x="300.7008" y="754.23"/>
      <point x="285.8084" y="754.23" type="curve" smooth="yes"/>
      <point x="260.122" y="754.23"/>
      <point x="253.1128" y="735.908"/>
    </contour>
  </outline>
</glyph>
<glyph name="blacktriangle" format="2">
  <advance width="665.46"/>
  <outline>
    <contour>
      <point x="151.16" y="40.0" type="line"/>
      <point x="583.96" y="307.0" type="line"/>
      <point x="151.16" y="575.0" type="line"/>
    </contour>
  </outline>
</glyph>
<glyph name="blackuppointingtriangle" format="2">
  <advance width="748.96"/>
  <outline>
    <contour>
      <point x="63.74" y="91.0" type="line"/>
      <point x="684.76" y="91.0" type="line"/>
      <point x="373.98" y="464.0" type="line"/>
    </contour>
  </outline>
</glyph>
<glyph name="breve_grave.uc" format="2">
  <advance width="591.88"/>
  <anchor x="292.6456" y="744.0" name="_top"/>
  <outline>
    <contour>
      <point x="246.3472" y="1018.322" type="curve" smooth="yes"/>
      <point x="348.63120000000004" y="930.3679999999999" type="line"/>
      <point x="348.63120000000004" y="916.0" type="line"/>
      <point x="333.9044" y="916.0" type="line"/>
      <point x="208.2348" y="986.712" type="line" smooth="yes"/>
      <point x="176.38" y="1005.712"/>
      <point x="159.9908" y="1017.172"/>
      <point x="159.9908" y="1033.586" type="curve" smooth="yes"/>
      <point x="159.9908" y="1046.954"/>
      <point x="169.46" y="1056.46"/>
      <point x="185.6008" y="1056.46" type="curve" smooth="yes"/>
      <point x="207.15840000000003" y="1056.46"/>
      <point x="219.2532" y="1042.414"/>
    </contour>
    <component base="breve.uc" xOffset="28.53840000000001"/>
  </outline>
</glyph>
<glyph name="circumflex_acute" format="2">
  <advance width="591.7972"/>
  <anchor x="269.0116" y="558.0" name="_top"/>
  <outline>
    <contour>
      <point x="481.2796" y="823.862" type="curve" smooth="yes"/>
      <point x="415.9664" y="707.046" type="line"/>
      <point x="415.9664" y="692.77" type="line"/>
      <point x="430.5276" y="692.77" type="line"/>
      <point x="528.2816" y="798.85" type="line" smooth="yes"/>
      <point x="544.0848000000001" y="815.9879999999999"/>
      <point x="558.0904" y="831.264"/>
      <point x="558.0904" y="846.402" type="curve" smooth="yes"/>
      <point x="558.0904" y="860.77"/>
      <point x="547.4556" y="871.092"/>
      <point x="529.6892" y="871.092" type="curve" smooth="yes"/>
      <point x="508.13160000000005" y="871.092"/>
      <point x="497.66240000000005" y="854.092"/>
    </contour>
    <component base="circumflex" xOffset="33.41479999999999"/>
  </outline>
</glyph>
<glyph name="circumflex_acute.uc" format="2">
  <advance width="591.88"/>
  <anchor x="284.56" y="749.0" name="_top"/>
  <outline>
    <contour>
      <point x="484.964" y="925.564" type="curve" smooth="yes"/>
      <point x="433.68039999999996" y="849.104" type="line"/>
      <point x="433.68039999999996" y="834.828" type="line"/>
      <point x="448.65559999999994" y="834.828" type="line"/>
      <point x="527.9504" y="903.448" type="line" smooth="yes"/>
      <point x="550.5144" y="924.31"/>
      <point x="563.8208" y="936.77"/>
      <point x="563.8208" y="952.23" type="curve" smooth="yes"/>
      <point x="563.8208" y="965.69"/>
      <point x="552.726" y="975.104"/>
      <point x="537.5852" y="975.104" type="curve" smooth="yes"/>
      <point x="517.6532" y="975.104"/>
      <point x="509.59799999999996" y="960.15"/>
    </contour>
    <component base="circumflex.uc" xOffset="44.003600000000006"/>
  </outline>
</glyph>
<glyph name="colonsign.proportional" format="2">
  <advance width="783.2636"/>
  <outline>
    <contour>
      <point x="205.0296" y="-120.0" type="line"/>
      <point x="244.36" y="-120.0" type="line"/>
      <point x="272.03999999999996" y="53.138" type="line"/>
      <point x="273.4172" y="60.46" type="line"/>
      <point x="372.254" y="675.356" type="line"/>
      <point x="374.714" y="686.494" type="line"/>
      <point x="390.9312" y="790.0" type="line"/>
      <point x="351.60080000000005" y="790.0" type="line"/>
      <point x="334.5492" y="679.172" type="line"/>
      <point x="332.0892" y="666.08" type="line"/>
      <point x="237.464" y="79.92" type="line"/>
      <point x="234.9212" y="66.87400000000001" type="line"/>
    </contour>
    <contour>
      <point x="406.2028" y="-120.0" type="line"/>
      <point x="445.5332" y="-120.0" type="line"/>
      <point x="468.6704" y="20.69" type="line"/>
      <point x="469.58759999999995" y="29.69" type="line"/>
      <point x="572.4272" y="667.54" type="line"/>
      <point x="573.97" y="673.6320000000001" type="line"/>
      <point x="592.1044" y="790.0" type="line"/>
      <point x="553.3168000000001" y="790.0" type="line"/>
      <point x="535.474" y="682.908" type="line"/>
      <point x="534.474" y="672.908" type="line"/>
      <point x="430.71720000000005" y="29.012" type="line"/>
      <point x="429.1744" y="21.966" type="line"/>
    </contour>
    <contour>
      <point x="443.23879999999997" y="668.7579999999999" type="curve" smooth="yes"/>
      <point x="593.8432" y="668.7579999999999"/>
      <point x="671.1444" y="625.436"/>
      <point x="712.4096" y="593.022" type="curve"/>
      <point x="702.9992" y="615.976"/>
      <point x="704.3543999999999" y="628.896"/>
      <point x="677.84" y="628.85" type="curve"/>
      <point x="677.84" y="528.976" type="line"/>
      <point x="728.692" y="528.976" type="line"/>
      <point x="728.692" y="627.264" type="line"/>
      <point x="696.4232000000001" y="649.448"/>
      <point x="608.2452000000001" y="700.0"/>
      <point x="443.23879999999997" y="700.0" type="curve" smooth="yes"/>
      <point x="224.28" y="700.0"/>
      <point x="60.031600000000005" y="557.025205479476"/>
      <point x="60.031600000000005" y="355.0" type="curve" smooth="yes"/>
      <point x="60.031600000000005" y="149.989917808228"/>
      <point x="213.4924" y="10.0"/>
      <point x="428.1504" y="10.0" type="curve" smooth="yes"/>
      <point x="599.6564" y="10.0"/>
      <point x="701.2604" y="96.46"/>
      <point x="739.3204000000001" y="220.058" type="curve"/>
      <point x="708.1152" y="236.702" type="line"/>
      <point x="676.6808000000001" y="128.15"/>
      <point x="589.7208" y="41.288"/>
      <point x="427.488" y="41.288" type="curve" smooth="yes"/>
      <point x="231.3608" y="41.288"/>
      <point x="103.80440000000002" y="165.570996587064"/>
      <point x="103.80440000000002" y="355.0" type="curve" smooth="yes"/>
      <point x="103.80440000000002" y="544.260295302048"/>
      <point x="247.73080000000002" y="668.7579999999999"/>
    </contour>
  </outline>
</glyph>
<glyph name="dollar.alt" format="2">
  <advance width="650.1600000000001"/>
  <outline>
    <contour>
      <point x="347.1648" y="39.564" type="curve" smooth="yes"/>
      <point x="232.8688" y="39.564"/>
      <point x="133.9556" y="70.47200000000001"/>
      <point x="88.5984" y="123.56400000000001" type="curve"/>
      <point x="80.5128" y="112.38"/>
      <point x="93.3592" y="91.368"/>
      <point x="110.54599999999999" y="85.322" type="curve"/>
      <point x="110.54599999999999" y="180.794" type="line"/>
      <point x="59.9424" y="180.794" type="line"/>
      <point x="59.9424" y="93.908" type="line"/>
      <point x="108.3456" y="50.908"/>
      <point x="214.1024" y="8.184000000000001"/>
      <point x="346.668" y="8.184000000000001" type="curve" smooth="yes"/>
      <point x="491.494" y="8.184000000000001"/>
      <point x="606.6768" y="72.552"/>
      <point x="606.6768" y="195.598" type="curve" smooth="yes"/>
      <point x="606.6768" y="319.69"/>
      <point x="480.0312" y="356.15"/>
      <point x="375.1392" y="380.242" type="curve" smooth="yes"/>
      <point x="258.2176" y="406.058"/>
      <point x="140.7164" y="429.012"/>
      <point x="140.7164" y="532.908" type="curve" smooth="yes"/>
      <point x="140.7164" y="618.034"/>
      <point x="224.53480000000002" y="666.62"/>
      <point x="348.2108" y="666.62" type="curve" smooth="yes"/>
      <point x="456.8352" y="666.62"/>
      <point x="523.1179999999999" y="637.2520000000001"/>
      <point x="549.97" y="606.068" type="curve"/>
      <point x="563.7208" y="621.39"/>
      <point x="545.7059999999999" y="635.31"/>
      <point x="524.8568" y="638.264" type="curve"/>
      <point x="524.8568" y="551.574" type="line"/>
      <point x="578.1228000000001" y="551.574" type="line"/>
      <point x="578.1228000000001" y="635.816" type="line"/>
      <point x="550.1052" y="660.138"/>
      <point x="466.64200000000005" y="698.0"/>
      <point x="347.7968" y="698.0" type="curve" smooth="yes"/>
      <point x="200.0904" y="698.0"/>
      <point x="96.8304" y="632.0"/>
      <point x="96.8304" y="529.678" type="curve" smooth="yes"/>
      <point x="96.8304" y="407.402"/>
      <point x="218.72160000000002" y="373.264"/>
      <point x="320.2364" y="349.12600000000003" type="curve" smooth="yes"/>
      <point x="439.53520000000003" y="322.218"/>
      <point x="562.7447999999999" y="304.264"/>
      <point x="562.7447999999999" y="188.23" type="curve" smooth="yes"/>
      <point x="562.7447999999999" y="85.196"/>
      <point x="469.6752" y="39.564"/>
    </contour>
    <contour>
      <point x="360.8088" y="683.448" type="line"/>
      <point x="360.8088" y="787.138" type="line"/>
      <point x="321.4784" y="787.138" type="line"/>
      <point x="321.4784" y="683.448" type="line"/>
    </contour>
    <contour>
      <point x="321.4784" y="18.828" type="line"/>
      <point x="321.4784" y="-120.0" type="line"/>
      <point x="360.8088" y="-120.0" type="line"/>
      <point x="360.8088" y="18.828" type="line"/>
    </contour>
  </outline>
</glyph>
<glyph name="dotaccentcomb" format="2">
  <anchor x="34.279199999999996" y="526.0" name="_top"/>
  <outline>
    <contour>
      <point x="-322.0992" y="655.2520000000001" type="curve" smooth="yes"/>
      <point x="-296.744" y="655.2520000000001"/>
      <point x="-277.9776" y="669.666"/>
      <point x="-277.9776" y="696.218" type="curve" smooth="yes"/>
      <point x="-277.9776" y="722.7239999999999"/>
      <point x="-296.744" y="737.138"/>
      <point x="-322.0992" y="737.138" type="curve" smooth="yes"/>
      <point x="-347.37160000000006" y="737.138"/>
      <point x="-366.138" y="722.7239999999999"/>
      <point x="-366.138" y="696.218" type="curve" smooth="yes"/>
      <point x="-366.138" y="669.666"/>
      <point x="-347.37160000000006" y="655.2520000000001"/>
    </contour>
  </outline>
</glyph>
<glyph name="f_f.alt" format="2">
  <advance width="805.2592"/>
  <outline>
    <contour>
      <point x="40.1888" y="508.0" type="line"/>
      <point x="40.1888" y="479.62" type="line"/>
      <point x="511.0168" y="479.62" type="line"/>
      <point x="511.0168" y="508.0" type="line"/>
    </contour>
    <contour>
      <point x="419.0124" y="508.0" type="line"/>
      <point x="419.0124" y="479.62" type="line"/>
      <point x="768.8808" y="479.62" type="line"/>
      <point x="768.8808" y="508.0" type="line"/>
    </contour>
    <contour>
      <point x="539.4896" y="37.827999999999996" type="line" smooth="yes"/>
      <point x="539.4896" y="30.828"/>
      <point x="485.72200000000004" y="27.828"/>
      <point x="443.7292" y="27.828" type="curve" smooth="yes"/>
      <point x="424.3896" y="27.828" type="line"/>
      <point x="424.3896" y="0.0" type="line"/>
      <point x="705.9448" y="0.0" type="line"/>
      <point x="705.9448" y="27.828" type="line"/>
      <point x="690.6448" y="27.828" type="line" smooth="yes"/>
      <point x="627.9048" y="27.828"/>
      <point x="580.4648" y="30.828"/>
      <point x="580.4648" y="37.827999999999996" type="curve" smooth="yes"/>
      <point x="580.4648" y="600.528" type="line" smooth="yes"/>
      <point x="580.4648" y="694.2520000000001"/>
      <point x="640.4836" y="720.804"/>
      <point x="714.1068" y="720.804" type="curve" smooth="yes"/>
      <point x="764.6756" y="720.804"/>
      <point x="799.156" y="707.666"/>
      <point x="830.124" y="676.85" type="curve"/>
      <point x="836.1332" y="702.482"/>
      <point x="827.906" y="704.3679999999999"/>
      <point x="805.928" y="725.31" type="curve"/>
      <point x="805.928" y="637.85" type="line"/>
      <point x="858.022" y="637.85" type="line"/>
      <point x="858.022" y="710.644" type="line"/>
      <point x="830.1" y="732.046"/>
      <point x="786.316" y="752.0"/>
      <point x="713.7756" y="752.0" type="curve" smooth="yes"/>
      <point x="616.7908" y="752.0"/>
      <point x="539.4896" y="708.942"/>
      <point x="539.4896" y="600.528" type="curve" smooth="yes"/>
    </contour>
    <contour>
      <point x="202.184" y="37.827999999999996" type="curve" smooth="yes"/>
      <point x="202.184" y="558.586" type="line" smooth="yes"/>
      <point x="202.184" y="669.482"/>
      <point x="290.824" y="700.804"/>
      <point x="392.014" y="700.804" type="curve" smooth="yes"/>
      <point x="465.4348" y="700.804"/>
      <point x="529.0856" y="682.62"/>
      <point x="569.1852" y="635.62" type="curve"/>
      <point x="575.1944" y="677.436"/>
      <point x="561.5504000000001" y="680.506"/>
      <point x="539.4896" y="690.9879999999999" type="curve"/>
      <point x="539.4896" y="567.85" type="line"/>
      <point x="578.336" y="617.85" type="line"/>
      <point x="578.336" y="680.586" type="line"/>
      <point x="546.6992" y="706.586"/>
      <point x="484.456" y="732.0"/>
      <point x="392.014" y="732.0" type="curve" smooth="yes"/>
      <point x="261.1744" y="732.0"/>
      <point x="161.2088" y="686.08"/>
      <point x="161.2088" y="558.586" type="curve" smooth="yes"/>
      <point x="161.2088" y="63.827999999999996" type="line"/>
      <point x="161.2088" y="34.827999999999996"/>
      <point x="122.6888" y="27.828"/>
      <point x="58.948800000000006" y="27.828" type="curve" smooth="yes"/>
      <point x="46.1088" y="27.828" type="line"/>
      <point x="46.1088" y="0.0" type="line"/>
      <point x="329.93640000000005" y="0.0" type="line"/>
      <point x="329.93640000000005" y="27.828" type="line"/>
      <point x="314.02" y="27.828" type="line" smooth="yes"/>
      <point x="250.36919999999998" y="27.828"/>
      <point x="202.184" y="30.828"/>
    </contour>
  </outline>
</glyph>
<glyph name="f_f.short" format="2">
  <advance width="804.1"/>
  <outline>
    <contour>
      <point x="40.1888" y="508.0" type="line"/>
      <point x="40.1888" y="479.62" type="line"/>
      <point x="516.222" y="479.62" type="line"/>
      <point x="516.222" y="508.0" type="line"/>
    </contour>
    <contour>
      <point x="419.0124" y="508.0" type="line"/>
      <point x="419.0124" y="479.62" type="line"/>
      <point x="763.5864" y="479.62" type="line"/>
      <point x="763.5864" y="508.0" type="line"/>
    </contour>
    <contour>
      <point x="539.4896" y="37.827999999999996" type="line"/>
      <point x="539.4896" y="30.828"/>
      <point x="485.72200000000004" y="27.828"/>
      <point x="443.7292" y="27.828" type="curve" smooth="yes"/>
      <point x="424.3896" y="27.828" type="line"/>
      <point x="424.3896" y="0.0" type="line"/>
      <point x="705.9448" y="0.0" type="line"/>
      <point x="705.9448" y="27.828" type="line"/>
      <point x="690.6448" y="27.828" type="line" smooth="yes"/>
      <point x="627.9048" y="27.828"/>
      <point x="580.4648" y="30.828"/>
      <point x="580.4648" y="37.827999999999996" type="curve" smooth="yes"/>
      <point x="580.4648" y="604.39" type="line" smooth="yes"/>
      <point x="580.4648" y="696.85"/>
      <point x="626.4016" y="720.804"/>
      <point x="689.5556" y="720.804" type="curve" smooth="yes"/>
      <point x="727.278" y="720.804"/>
      <point x="746.0444" y="712.85"/>
      <point x="761.9304" y="707.712" type="curve"/>
      <point x="761.9304" y="742.0" type="line"/>
      <point x="748.4216" y="746.092"/>
      <point x="729.9864" y="752.0"/>
      <point x="691.6384" y="752.0" type="curve" smooth="yes"/>
      <point x="607.2516" y="752.0"/>
      <point x="539.4896" y="711.908"/>
      <point x="539.4896" y="604.39" type="curve"/>
    </contour>
    <contour>
      <point x="202.184" y="37.827999999999996" type="curve"/>
      <point x="202.184" y="576.08" type="line" smooth="yes"/>
      <point x="202.184" y="675.218"/>
      <point x="245.9156" y="708.712"/>
      <point x="320.0292" y="708.712" type="curve" smooth="yes"/>
      <point x="357.42040000000003" y="708.712"/>
      <point x="387.5604" y="699.712"/>
      <point x="412.406" y="691.712" type="curve"/>
      <point x="412.406" y="727.046" type="line"/>
      <point x="391.0204" y="733.046"/>
      <point x="357.5032" y="737.046"/>
      <point x="322.6548" y="737.046" type="curve" smooth="yes"/>
      <point x="227.3084" y="737.046"/>
      <point x="161.2088" y="690.2760000000001"/>
      <point x="161.2088" y="576.08" type="curve" smooth="yes"/>
      <point x="161.2088" y="63.827999999999996" type="line" smooth="yes"/>
      <point x="161.2088" y="34.827999999999996"/>
      <point x="122.6888" y="27.828"/>
      <point x="58.948800000000006" y="27.828" type="curve" smooth="yes"/>
      <point x="46.1088" y="27.828" type="line"/>
      <point x="46.1088" y="0.0" type="line"/>
      <point x="329.93640000000005" y="0.0" type="line"/>
      <point x="329.93640000000005" y="27.828" type="line"/>
      <point x="314.02" y="27.828" type="line" smooth="yes"/>
      <point x="250.36919999999998" y="27.828"/>
      <point x="202.184" y="30.828"/>
    </contour>
  </outline>
</glyph>
<glyph name="f_f_b.alt" format="2">
  <advance width="1493.928"/>
  <outline>
    <contour>
      <point x="202.184" y="37.827999999999996" type="curve" smooth="yes"/>
      <point x="202.184" y="558.586" type="line" smooth="yes"/>
      <point x="202.184" y="669.482"/>
      <point x="290.824" y="700.804"/>
      <point x="392.014" y="700.804" type="curve" smooth="yes"/>
      <point x="465.4348" y="700.804"/>
      <point x="529.0856" y="682.62"/>
      <point x="569.1852" y="635.62" type="curve"/>
      <point x="575.1944" y="677.436"/>
      <point x="561.4676" y="680.506"/>
      <point x="539.4896" y="690.9879999999999" type="curve"/>
      <point x="539.4896" y="567.85" type="line"/>
      <point x="578.336" y="617.85" type="line"/>
      <point x="578.336" y="680.586" type="line"/>
      <point x="546.6992" y="706.586"/>
      <point x="484.456" y="732.0"/>
      <point x="392.014" y="732.0" type="curve" smooth="yes"/>
      <point x="261.1744" y="732.0"/>
      <point x="161.2088" y="686.08"/>
      <point x="161.2088" y="558.586" type="curve" smooth="yes"/>
      <point x="161.2088" y="63.827999999999996" type="line"/>
      <point x="161.2088" y="34.827999999999996"/>
      <point x="122.6888" y="27.828"/>
      <point x="58.948800000000006" y="27.828" type="curve" smooth="yes"/>
      <point x="46.1088" y="27.828" type="line"/>
      <point x="46.1088" y="0.0" type="line"/>
      <point x="329.93640000000005" y="0.0" type="line"/>
      <point x="329.93640000000005" y="27.828" type="line"/>
      <point x="314.02" y="27.828" type="line" smooth="yes"/>
      <point x="250.36919999999998" y="27.828"/>
      <point x="202.184" y="30.828"/>
    </contour>
    <contour>
      <point x="707.104" y="0.0" type="line"/>
      <point x="707.104" y="27.828" type="line"/>
      <point x="691.7212000000001" y="27.828" type="line" smooth="yes"/>
      <point x="628.3188" y="27.828"/>
      <point x="580.4648" y="30.828"/>
      <point x="580.4648" y="37.827999999999996" type="curve" smooth="yes"/>
      <point x="580.4648" y="594.85" type="line" smooth="yes"/>
      <point x="580.4648" y="693.9879999999999"/>
      <point x="636.2848" y="720.804"/>
      <point x="750.3628000000001" y="720.804" type="curve" smooth="yes"/>
      <point x="818.3604" y="720.804"/>
      <point x="886.5540000000001" y="705.712"/>
      <point x="941.8708" y="670.7" type="curve"/>
      <point x="950.2048" y="710.448" type="line"/>
      <point x="907.2248000000001" y="727.184"/>
      <point x="843.4848" y="752.0"/>
      <point x="750.1144" y="752.0" type="curve" smooth="yes"/>
      <point x="617.5120000000001" y="752.0"/>
      <point x="539.4896" y="709.046"/>
      <point x="539.4896" y="594.85" type="curve"/>
      <point x="539.4896" y="37.827999999999996" type="line" smooth="yes"/>
      <point x="539.4896" y="30.828"/>
      <point x="485.88759999999996" y="27.828"/>
      <point x="443.48080000000004" y="27.828" type="curve" smooth="yes"/>
      <point x="424.3896" y="27.828" type="line"/>
      <point x="424.3896" y="0.0" type="line"/>
    </contour>
    <contour>
      <point x="1398.5468" y="257.0" type="curve" smooth="yes"/>
      <point x="1398.5468" y="115.736"/>
      <point x="1323.102" y="21.242"/>
      <point x="1181.4636" y="21.242" type="curve" smooth="yes"/>
      <point x="1079.2928" y="21.242"/>
      <point x="1002.216" y="85.46"/>
      <point x="952.6472" y="183.552" type="curve"/>
      <point x="931.58" y="162.506" type="line"/>
      <point x="992.9124" y="51.678"/>
      <point x="1065.4464" y="-10.0"/>
      <point x="1185.0064000000002" y="-10.0" type="curve" smooth="yes"/>
      <point x="1340.3844" y="-10.0"/>
      <point x="1442.7336" y="99.0"/>
      <point x="1442.7336" y="257.0" type="curve" smooth="yes"/>
      <point x="1442.7336" y="414.0"/>
      <point x="1344.9272" y="518.0"/>
      <point x="1194.3864" y="518.0" type="curve" smooth="yes"/>
      <point x="1065.9496" y="518.0"/>
      <point x="993.1672" y="449.414"/>
      <point x="921.0408" y="337.632" type="curve"/>
      <point x="937.3996" y="310.81600000000003" type="line"/>
      <point x="1002.1332" y="415.632"/>
      <point x="1079.1272" y="486.758"/>
      <point x="1186.9236" y="486.758" type="curve" smooth="yes"/>
      <point x="1325.2676000000001" y="486.758"/>
      <point x="1398.5468" y="398.218"/>
    </contour>
    <contour>
      <point x="959.2884" y="735.0" type="line"/>
      <point x="856.8152" y="735.0" type="line"/>
      <point x="918.3132" y="702.356" type="line"/>
      <point x="918.3132" y="-3.0" type="line"/>
      <point x="943.0188" y="-3.0" type="line"/>
      <point x="960.4476" y="125.08" type="line"/>
      <point x="959.2884" y="140.08" type="line"/>
    </contour>
    <contour>
      <point x="40.1888" y="508.0" type="line"/>
      <point x="40.1888" y="479.62" type="line"/>
      <point x="516.222" y="479.62" type="line"/>
      <point x="516.222" y="508.0" type="line"/>
    </contour>
    <contour>
      <point x="419.0124" y="508.0" type="line"/>
      <point x="419.0124" y="479.62" type="line"/>
      <point x="769.5432000000001" y="479.62" type="line"/>
      <point x="769.5432000000001" y="508.0" type="line"/>
    </contour>
  </outline>
</glyph>
<glyph name="f_h" format="2">
  <advance width="1093.5928"/>
  <outline>
    <contour>
      <point x="40.1888" y="508.0" type="line"/>
      <point x="40.1888" y="479.62" type="line"/>
      <point x="391.2624" y="479.62" type="line"/>
      <point x="391.2624" y="508.0" type="line"/>
    </contour>
    <contour>
      <point x="1060.4132" y="0.0" type="line"/>
      <point x="1060.4132" y="27.828" type="line"/>
      <point x="1057.9532" y="27.828" type="line" smooth="yes"/>
      <point x="1001.9676" y="27.828"/>
      <point x="962.6132" y="34.827999999999996"/>
      <point x="962.6132" y="63.827999999999996" type="curve" smooth="yes"/>
      <point x="962.6132" y="357.0" type="line" smooth="yes"/>
      <point x="962.6132" y="468.0"/>
      <point x="899.8668" y="518.0"/>
      <point x="792.018" y="518.0" type="curve" smooth="yes"/>
      <point x="689.8344" y="518.0"/>
      <point x="617.8432" y="467.678"/>
      <point x="545.4684" y="364.988" type="curve"/>
      <point x="554.6128000000001" y="334.264" type="line"/>
      <point x="617.9324" y="427.08"/>
      <point x="688.6752" y="483.62"/>
      <point x="784.9259999999999" y="483.62" type="curve" smooth="yes"/>
      <point x="886.0444" y="483.62"/>
      <point x="921.6379999999999" y="441.034"/>
      <point x="921.6379999999999" y="346.0" type="curve" smooth="yes"/>
      <point x="921.6379999999999" y="37.827999999999996" type="line" smooth="yes"/>
      <point x="921.6379999999999" y="30.828"/>
      <point x="869.278" y="27.828"/>
      <point x="837.138" y="27.828" type="curve" smooth="yes"/>
      <point x="834.678" y="27.828" type="line"/>
      <point x="834.678" y="0.0" type="line"/>
    </contour>
    <contour>
      <point x="667.4248" y="0.0" type="line"/>
      <point x="667.4248" y="27.828" type="line"/>
      <point x="663.9648" y="27.828" type="line" smooth="yes"/>
      <point x="631.3648000000001" y="27.828"/>
      <point x="580.4648" y="30.828"/>
      <point x="580.4648" y="37.827999999999996" type="curve"/>
      <point x="580.4648" y="735.0" type="line"/>
      <point x="479.1508" y="735.0" type="line"/>
      <point x="539.4896" y="702.816" type="line"/>
      <point x="539.4896" y="37.827999999999996" type="line"/>
      <point x="539.4896" y="30.828"/>
      <point x="487.1296" y="27.828"/>
      <point x="455.0724" y="27.828" type="curve" smooth="yes"/>
      <point x="442.23240000000004" y="27.828" type="line"/>
      <point x="442.23240000000004" y="0.0" type="line"/>
    </contour>
    <contour>
      <point x="328.2804" y="0.0" type="line"/>
      <point x="328.2804" y="27.828" type="line"/>
      <point x="313.4404" y="27.828" type="line" smooth="yes"/>
      <point x="250.03799999999998" y="27.828"/>
      <point x="202.184" y="30.828"/>
      <point x="202.184" y="37.827999999999996" type="curve"/>
      <point x="202.184" y="594.85" type="line" smooth="yes"/>
      <point x="202.184" y="693.9879999999999"/>
      <point x="257.4612" y="720.804"/>
      <point x="372.082" y="720.804" type="curve" smooth="yes"/>
      <point x="440.0796" y="720.804"/>
      <point x="508.27320000000003" y="705.712"/>
      <point x="563.0472" y="670.7" type="curve"/>
      <point x="571.924" y="710.448" type="line"/>
      <point x="528.944" y="727.184"/>
      <point x="465.204" y="752.0"/>
      <point x="371.8336" y="752.0" type="curve" smooth="yes"/>
      <point x="238.6884" y="752.0"/>
      <point x="161.2088" y="709.046"/>
      <point x="161.2088" y="594.85" type="curve" smooth="yes"/>
      <point x="161.2088" y="63.827999999999996" type="line" smooth="yes"/>
      <point x="161.2088" y="34.827999999999996"/>
      <point x="122.6888" y="27.828"/>
      <point x="58.948800000000006" y="27.828" type="curve" smooth="yes"/>
      <point x="46.1088" y="27.828" type="line"/>
      <point x="46.1088" y="0.0" type="line"/>
    </contour>
  </outline>
</glyph>
<glyph name="florin" format="2">
  <advance width="650.1600000000001"/>
  <outline>
    <contour>
      <point x="183.8732" y="508.0" type="line"/>
      <point x="178.036" y="476.896" type="line"/>
      <point x="592.0328000000001" y="476.896" type="line"/>
      <point x="597.87" y="508.0" type="line"/>
    </contour>
    <contour>
      <point x="290.5692" y="56.0" type="curve" smooth="yes"/>
      <point x="375.0692" y="567.69" type="line" smooth="yes"/>
      <point x="394.326" y="681.494"/>
      <point x="451.97400000000005" y="721.034"/>
      <point x="542.7188" y="721.034" type="curve" smooth="yes"/>
      <point x="582.4044000000001" y="721.034"/>
      <point x="617.4644000000001" y="711.172"/>
      <point x="655.6072" y="699.172" type="curve"/>
      <point x="661.61" y="733.69" type="line"/>
      <point x="631.47" y="745.69"/>
      <point x="583.4044000000001" y="752.69"/>
      <point x="541.8016" y="752.69" type="curve" smooth="yes"/>
      <point x="425.6492" y="752.69"/>
      <point x="355.23120000000006" y="695.69"/>
      <point x="335.4712" y="573.69" type="curve" smooth="yes"/>
      <point x="253.3852" y="56.31" type="line" smooth="yes"/>
      <point x="221.5368" y="-141.862"/>
      <point x="144.3468" y="-204.344"/>
      <point x="50.5688" y="-204.344" type="curve" smooth="yes"/>
      <point x="1.2244000000000002" y="-204.344"/>
      <point x="-40.372" y="-190.666"/>
      <point x="-66.30040000000001" y="-181.758" type="curve"/>
      <point x="-72.3032" y="-216.276" type="line"/>
      <point x="-48.338" y="-226.138"/>
      <point x="-8.0728" y="-236.0"/>
      <point x="50.7344" y="-236.0" type="curve" smooth="yes"/>
      <point x="173.334" y="-236.0"/>
      <point x="255.4264" y="-155.0"/>
    </contour>
  </outline>
</glyph>
<glyph name="heartsuitwhite" format="2">
  <advance width="1045.9"/>
  <outline>
    <contour>
      <point x="529.6" y="461.0" type="line"/>
      <point x="565.2" y="541.0"/>
      <point x="638.3199999999999" y="641.0"/>
      <point x="744.04" y="641.0" type="curve" smooth="yes"/>
      <point x="831.46" y="641.0"/>
      <point x="879.9000000000001" y="594.0"/>
      <point x="879.9000000000001" y="528.0" type="curve" smooth="yes"/>
      <point x="879.9000000000001" y="446.0"/>
      <point x="832.46" y="397.0"/>
      <point x="754.88" y="316.0" type="curve" smooth="yes"/>
      <point x="528.14" y="83.0" type="line"/>
      <point x="517.76" y="83.0" type="line"/>
      <point x="291.48" y="316.0" type="line" smooth="yes"/>
      <point x="213.44" y="397.0"/>
      <point x="166.0" y="446.0"/>
      <point x="166.0" y="528.0" type="curve" smooth="yes"/>
      <point x="166.0" y="594.0"/>
      <point x="214.9" y="641.0"/>
      <point x="301.86" y="641.0" type="curve" smooth="yes"/>
      <point x="407.58000000000004" y="641.0"/>
      <point x="480.70000000000005" y="541.0"/>
      <point x="517.76" y="461.0" type="curve"/>
    </contour>
    <contour>
      <point x="509.84000000000003" y="-10.0" type="line"/>
      <point x="536.52" y="-10.0" type="line"/>
      <point x="811.7" y="273.0" type="line" smooth="yes"/>
      <point x="910.04" y="375.0"/>
      <point x="964.86" y="437.0"/>
      <point x="964.86" y="535.0" type="curve" smooth="yes"/>
      <point x="964.86" y="632.0"/>
      <point x="888.28" y="710.0"/>
      <point x="753.4200000000001" y="710.0" type="curve" smooth="yes"/>
      <point x="645.7" y="710.0"/>
      <point x="567.6600000000001" y="657.0"/>
      <point x="523.6800000000001" y="569.0" type="curve"/>
      <point x="478.24" y="657.0"/>
      <point x="400.66" y="710.0"/>
      <point x="292.48" y="710.0" type="curve" smooth="yes"/>
      <point x="158.07999999999998" y="710.0"/>
      <point x="81.03999999999999" y="632.0"/>
      <point x="81.03999999999999" y="535.0" type="curve" smooth="yes"/>
      <point x="81.03999999999999" y="437.0"/>
      <point x="135.86" y="375.0"/>
      <point x="234.66" y="273.0" type="curve" smooth="yes"/>
    </contour>
  </outline>
</glyph>
<glyph name="six.den" format="2">
  <advance width="376.44"/>
  <outline>
    <contour>
      <point x="292.8636" y="327.632" type="line"/>
      <point x="162.181685746144" y="307.986857140912"/>
      <point x="93.9324" y="237.0"/>
      <point x="93.9324" y="142.862" type="curve" smooth="yes"/>
      <point x="93.9324" y="60.954"/>
      <point x="131.2719999999832" y="24.413999999999998"/>
      <point x="188.8888" y="24.413999999999998" type="curve" smooth="yes"/>
      <point x="244.7430983051072" y="24.413999999999998"/>
      <point x="282.8388" y="61.138"/>
      <point x="282.8388" y="116.908" type="curve" smooth="yes"/>
      <point x="282.8388" y="160.0"/>
      <point x="260.3029333334008" y="193.77"/>
      <point x="199.68280000000001" y="193.77" type="curve" smooth="yes"/>
      <point x="146.7295623529704" y="193.77"/>
      <point x="101.75767398231599" y="160.876723478612"/>
      <point x="74.59280000000001" y="114.184" type="curve"/>
      <point x="64.9644" y="142.41400000000002" type="line"/>
      <point x="83.96732852872121" y="180.376033509368"/>
      <point x="138.1685383177632" y="225.138"/>
      <point x="205.5264" y="225.138" type="curve" smooth="yes"/>
      <point x="285.8148" y="225.138"/>
      <point x="331.26120000000003" y="182.23"/>
      <point x="331.26120000000003" y="117.0" type="curve" smooth="yes"/>
      <point x="331.26120000000003" y="46.862"/>
      <point x="270.39520000000005" y="-6.0"/>
      <point x="188.806" y="-6.0" type="curve" smooth="yes"/>
      <point x="103.9224" y="-6.0"/>
      <point x="44.636" y="46.77"/>
      <point x="44.636" y="142.90800000000002" type="curve" smooth="yes"/>
      <point x="44.636" y="249.0"/>
      <point x="134.3108" y="338.23"/>
      <point x="288.1092" y="358.0" type="curve"/>
    </contour>
  </outline>
</glyph>
<glyph name="sterling.alt" format="2">
  <advance width="650.1600000000001"/>
  <outline>
    <contour>
      <point x="34.1032" y="352.782" type="line"/>
      <point x="34.1032" y="321.77" type="line"/>
      <point x="460.1948" y="321.77" type="line"/>
      <point x="460.1948" y="352.782" type="line"/>
    </contour>
    <contour>
      <point x="50.3904" y="0.0" type="line"/>
      <point x="585.764" y="0.0" type="line"/>
      <point x="585.764" y="170.162" type="line"/>
      <point x="558.1016" y="170.162" type="line"/>
      <point x="547.1788" y="74.932" type="line" smooth="yes"/>
      <point x="543.7188" y="38.932"/>
      <point x="502.2816" y="31.932000000000002"/>
      <point x="402.4816" y="31.932000000000002" type="curve"/>
      <point x="82.4476" y="31.932000000000002" type="line"/>
      <point x="92.3592" y="27.61" type="line"/>
      <point x="199.0728" y="68.47200000000001"/>
      <point x="254.2672" y="138.254"/>
      <point x="254.2672" y="222.74800000000002" type="curve" smooth="yes"/>
      <point x="254.2672" y="332.472"/>
      <point x="153.8572" y="411.046"/>
      <point x="153.8572" y="527.816" type="curve" smooth="yes"/>
      <point x="153.8572" y="630.85"/>
      <point x="235.8908" y="686.62"/>
      <point x="349.5244" y="686.62" type="curve" smooth="yes"/>
      <point x="434.9812" y="686.62"/>
      <point x="483.4212" y="656.85"/>
      <point x="515.9384" y="630.712" type="curve"/>
      <point x="516.104" y="641.172"/>
      <point x="503.1812" y="656.586"/>
      <point x="492.08000000000004" y="670.9879999999999" type="curve"/>
      <point x="492.08000000000004" y="570.712" type="line"/>
      <point x="543.4288" y="570.712" type="line"/>
      <point x="543.4288" y="661.046" type="line"/>
      <point x="510.8288" y="684.184"/>
      <point x="450.70799999999997" y="718.0"/>
      <point x="349.6072" y="718.0" type="curve" smooth="yes"/>
      <point x="210.4768" y="718.0"/>
      <point x="109.6704" y="642.77"/>
      <point x="109.6704" y="527.586" type="curve" smooth="yes"/>
      <point x="109.6704" y="402.368"/>
      <point x="215.3444" y="313.702"/>
      <point x="215.3444" y="222.058" type="curve" smooth="yes"/>
      <point x="215.3444" y="125.116"/>
      <point x="151.46280000000002" y="78.56400000000001"/>
      <point x="50.3904" y="36.748" type="curve"/>
    </contour>
  </outline>
</glyph>
